<svg width="109" height="30" viewBox="0 0 109 30" fill="none" xmlns="http://www.w3.org/2000/svg">
<rect width="109" height="30" fill="#F2F2F2"/>
<rect width="1440" height="1024" transform="translate(-181 -64)" fill="white"/>
<path d="M-84 -4C-84 -10.6274 -78.6274 -16 -72 -16H200C206.627 -16 212 -10.6274 212 -4V35C212 41.6274 206.627 47 200 47H-84V-4Z" fill="#3674FF"/>
<path d="M-84 -4C-84 -10.6274 -78.6274 -16 -72 -16H49V47H-84V-4Z" fill="#418FFF"/>
<path fill-rule="evenodd" clip-rule="evenodd" d="M14 0H12V30H14V0ZM6 7H8V24H6V7ZM31 9H29V21H31V9ZM2 11H0V19H2V11ZM59 13H57V18H59V13ZM46 11H48V19H46V11ZM93 11H91V19H93V11ZM107 11H109V19H107V11ZM20 7H18V24H20V7ZM35 7H37V24H35V7ZM53 7H51V24H53V7ZM69 7H71V24H69V7ZM87 7H85V24H87V7ZM102 7H104V24H102V7ZM24 0H26V30H24V0ZM43 0H41V30H43V0ZM63 0H65V30H63V0ZM76 0H74V30H76V0ZM80 0H82V30H80V0ZM98 0H96V30H98V0Z" fill="white"/>
</svg>
